<svg width="48" height="48" viewBox="0 0 48 48" fill="none" xmlns="http://www.w3.org/2000/svg">
<path fill-rule="evenodd" clip-rule="evenodd" d="M42.3327 24.0002C42.3327 34.1254 34.1246 42.3335 23.9993 42.3335C13.8741 42.3335 5.66602 34.1254 5.66602 24.0002C5.66602 13.875 13.8741 5.66687 23.9993 5.66687C34.1246 5.66687 42.3327 13.875 42.3327 24.0002ZM23.9982 18.4997C25.517 18.4997 26.7482 17.2685 26.7482 15.7497C26.7482 14.231 25.517 12.9997 23.9982 12.9997C22.4794 12.9997 21.2482 14.231 21.2482 15.7497C21.2482 17.2685 22.4794 18.4997 23.9982 18.4997ZM22.1666 33.1665V23.9999C22.1666 22.9879 22.9879 22.1665 23.9999 22.1665C25.0119 22.1665 25.8333 22.9879 25.8333 23.9999V33.1665C25.8333 34.1785 25.0119 34.9998 23.9999 34.9998C22.9879 34.9998 22.1666 34.1785 22.1666 33.1665Z" fill="#51A3EE"/>
</svg>
