<svg width="24" height="24" viewBox="0 0 24 24" fill="none" xmlns="http://www.w3.org/2000/svg">
<path d="M14.6188 23.0001C14.4241 23 14.2333 22.9458 14.0677 22.8435C13.9021 22.7413 13.7681 22.595 13.6808 22.4211L10.5718 16.2001C10.4879 16.0319 10.4507 15.8443 10.4638 15.6568C10.477 15.4694 10.5402 15.2888 10.6468 15.1341L15.6668 8.33405L8.86678 13.3521C8.71218 13.4586 8.53184 13.5218 8.34452 13.535C8.15721 13.5482 7.96979 13.5109 7.80178 13.4271L1.57878 10.3181C1.3967 10.2263 1.24534 10.0834 1.14326 9.9069C1.04117 9.7304 0.992787 9.52795 1.00404 9.32436C1.01529 9.12077 1.08569 8.92489 1.2066 8.76071C1.32751 8.59653 1.49369 8.47119 1.68478 8.40005L21.5898 1.06405C21.7775 0.994669 21.9813 0.980565 22.1768 1.02341C22.3723 1.06626 22.5515 1.16426 22.693 1.3058C22.8346 1.44735 22.9326 1.6265 22.9754 1.82204C23.0183 2.01757 23.0042 2.22129 22.9348 2.40905L15.5998 22.3151C15.5292 22.5068 15.4039 22.6737 15.2395 22.7951C15.0752 22.9164 14.8788 22.987 14.6748 22.9981L14.6188 23.0001Z" fill="#0E4F8B"/>
</svg>
