<svg width="24" height="24" viewBox="0 0 24 24" fill="none" xmlns="http://www.w3.org/2000/svg">
<path d="M10.998 16L15.998 12L10.998 8V11H1.99805V13H10.998V16Z" fill="#686868"/>
<path d="M12.9993 2.99906C11.8168 2.99578 10.6454 3.22717 9.553 3.67982C8.46059 4.13247 7.46886 4.79739 6.63525 5.63606L8.04925 7.05006C9.37125 5.72806 11.1293 4.99906 12.9993 4.99906C14.8693 4.99906 16.6273 5.72806 17.9493 7.05006C19.2713 8.37206 20.0003 10.1301 20.0003 12.0001C20.0003 13.8701 19.2713 15.6281 17.9493 16.9501C16.6273 18.2721 14.8693 19.0011 12.9993 19.0011C11.1293 19.0011 9.37125 18.2721 8.04925 16.9501L6.63525 18.3641C8.33425 20.0641 10.5943 21.0011 12.9993 21.0011C15.4043 21.0011 17.6643 20.0641 19.3633 18.3641C21.0633 16.6651 22.0003 14.4051 22.0003 12.0001C22.0003 9.59506 21.0633 7.33506 19.3633 5.63606C18.5297 4.79739 17.5379 4.13247 16.4455 3.67982C15.3531 3.22717 14.1817 2.99578 12.9993 2.99906Z" fill="#686868"/>
</svg>
