<svg width="28" height="28" viewBox="0 0 28 28" fill="none" xmlns="http://www.w3.org/2000/svg">
<g clip-path="url(#clip0_39_244)">
<path d="M25.8557 6.59858C24.965 6.99256 24.0205 7.2513 23.0533 7.36625C24.0727 6.75659 24.8357 5.7971 25.2 4.66658C24.2433 5.23591 23.1945 5.63491 22.1013 5.85075C21.367 5.06509 20.3938 4.54404 19.3328 4.3686C18.2718 4.19316 17.1826 4.37315 16.2345 4.88061C15.2864 5.38807 14.5325 6.19455 14.09 7.17467C13.6475 8.1548 13.5412 9.25366 13.7877 10.3004C11.8476 10.2032 9.94972 9.69903 8.21717 8.82069C6.48462 7.94235 4.95615 6.70947 3.731 5.20208C3.29734 5.94694 3.06945 6.79368 3.07067 7.65558C3.07067 9.34725 3.93167 10.8417 5.24067 11.7167C4.46601 11.6924 3.7084 11.4832 3.031 11.1066V11.1672C3.03123 12.2939 3.4211 13.3858 4.13449 14.2578C4.84788 15.1298 5.8409 15.7283 6.94517 15.9517C6.22605 16.1466 5.47203 16.1753 4.74017 16.0357C5.05151 17.0055 5.65834 17.8536 6.47569 18.4614C7.29304 19.0691 8.27998 19.406 9.29833 19.4249C8.28623 20.2198 7.12737 20.8074 5.88803 21.1541C4.64868 21.5008 3.35315 21.5999 2.0755 21.4456C4.30581 22.8799 6.90211 23.6414 9.55383 23.6389C18.529 23.6389 23.4372 16.2037 23.4372 9.75558C23.4372 9.54558 23.4313 9.33325 23.422 9.12558C24.3773 8.43511 25.2019 7.57977 25.8568 6.59975L25.8557 6.59858Z" fill="#686868"/>
</g>
<defs>
<clipPath id="clip0_39_244">
<rect width="28" height="28" fill="white"/>
</clipPath>
</defs>
</svg>
