<svg width="28" height="28" viewBox="0 0 28 28" fill="none" xmlns="http://www.w3.org/2000/svg">
<path d="M26.9937 7.48135C26.6875 6.3001 25.7688 5.38135 24.5875 5.0751C22.4875 4.50635 14 4.50635 14 4.50635C14 4.50635 5.5125 4.50635 3.4125 5.0751C2.23125 5.38135 1.3125 6.3001 1.00625 7.48135C0.4375 9.6251 0.4375 14.0001 0.4375 14.0001C0.4375 14.0001 0.4375 18.4189 1.00625 20.5189C1.3125 21.7001 2.23125 22.6189 3.4125 22.9251C5.5125 23.4939 14 23.4939 14 23.4939C14 23.4939 22.4875 23.4939 24.5875 22.9251C25.7688 22.6189 26.6875 21.7001 26.9937 20.5189C27.5625 18.4189 27.5625 14.0001 27.5625 14.0001C27.5625 14.0001 27.5625 9.6251 26.9937 7.48135ZM11.2875 18.0688V9.93135L18.3313 14.0001L11.2875 18.0688Z" fill="#686868"/>
</svg>
