<svg width="30" height="30" viewBox="0 0 30 30" fill="none" xmlns="http://www.w3.org/2000/svg">
<path d="M15 21C11.6863 21 9 18.3137 9 15C9 11.6863 11.6863 9 15 9C18.3137 9 21 11.6863 21 15C21 18.3137 18.3137 21 15 21Z" fill="#51A3EE"/>
<path d="M3.37605 17.0496C1.6373 17.3562 0.445476 19.0358 1.11293 20.6704C2.04477 22.9524 3.5314 24.9856 5.45871 26.5744C8.21462 28.8461 11.6906 30.06 15.2616 29.9977C18.8326 29.9354 22.2642 28.6009 24.9392 26.2343C26.8098 24.5793 28.2246 22.4954 29.0763 20.1823C29.6863 18.5254 28.4365 16.8884 26.6881 16.6427C24.9398 16.397 23.37 17.6696 22.5064 19.2096C22.0383 20.0443 21.4306 20.8016 20.7026 21.4457C19.1678 22.8036 17.1989 23.5692 15.1501 23.605C13.1012 23.6407 11.1068 22.9443 9.52562 21.6408C8.77552 21.0225 8.14182 20.2869 7.64483 19.469C6.72804 17.9601 5.1148 16.743 3.37605 17.0496Z" fill="#51A3EE"/>
<path d="M29.884 16.8745C29.9606 16.2604 30 15.6348 30 15C30 6.71573 23.2843 0 15 0C6.71573 0 0 6.71573 0 15C0 15.8147 0.06495 16.6142 0.18996 17.3937C0.87894 16.4505 1.95426 15.7772 3.11576 15.5724C4.37245 15.3508 5.51458 15.6556 6.48027 16.2253C6.42322 15.8251 6.3937 15.416 6.3937 15C6.3937 10.2469 10.2469 6.3937 15 6.3937C19.7531 6.3937 23.6063 10.2469 23.6063 15C23.6063 15.3134 23.5895 15.6229 23.5569 15.9276C24.5022 15.3243 25.6332 14.9796 26.8971 15.1573C28.0647 15.3214 29.1625 15.9564 29.884 16.8745Z" fill="#0E4F8B"/>
</svg>
