<svg width="163" height="30" viewBox="0 0 163 30" fill="none" xmlns="http://www.w3.org/2000/svg">
<path d="M48.304 8.4V21H45.478V15.78H40.744V21H37.936V8.4H40.744V13.584H45.478V8.4H48.304Z" fill="white"/>
<path d="M54.4724 21.162C53.4644 21.162 52.6124 20.934 51.9164 20.478C51.2324 20.01 50.7224 19.404 50.3864 18.66C50.0624 17.904 49.9004 17.094 49.9004 16.23C49.9004 15.366 50.0624 14.562 50.3864 13.818C50.7224 13.062 51.2324 12.45 51.9164 11.982C52.6124 11.514 53.4764 11.28 54.5084 11.28C55.8524 11.28 56.9204 11.706 57.7124 12.558C58.5044 13.398 58.9004 14.622 58.9004 16.23V17.004H52.6004V17.148C52.6004 17.64 52.7684 18.066 53.1044 18.426C53.4524 18.774 53.8904 18.948 54.4184 18.948C54.8264 18.948 55.1744 18.858 55.4624 18.678C55.7504 18.486 55.9544 18.234 56.0744 17.922H58.8284C58.5884 18.87 58.0904 19.65 57.3344 20.262C56.5904 20.862 55.6364 21.162 54.4724 21.162ZM56.2184 15.204C56.2064 14.556 56.0384 14.076 55.7144 13.764C55.4024 13.452 54.9824 13.296 54.4544 13.296C53.9144 13.296 53.4824 13.464 53.1584 13.8C52.8464 14.136 52.6844 14.604 52.6724 15.204H56.2184Z" fill="white"/>
<path d="M63.8363 21.162C62.6603 21.162 61.7483 20.718 61.1003 19.83C60.4643 18.93 60.1463 17.73 60.1463 16.23C60.1463 14.718 60.4763 13.518 61.1363 12.63C61.7963 11.73 62.7083 11.28 63.8723 11.28C64.6763 11.28 65.2943 11.46 65.7263 11.82C66.1583 12.168 66.4583 12.522 66.6263 12.882H66.7703V11.478H69.5963V21H66.7703V19.47H66.6263C66.4463 19.854 66.1343 20.232 65.6903 20.604C65.2583 20.976 64.6403 21.162 63.8363 21.162ZM64.8983 18.912C65.5343 18.912 66.0083 18.648 66.3203 18.12C66.6323 17.58 66.7883 16.944 66.7883 16.212C66.7883 15.492 66.6323 14.868 66.3203 14.34C66.0083 13.8 65.5343 13.53 64.8983 13.53C64.2383 13.53 63.7523 13.794 63.4403 14.322C63.1403 14.838 62.9903 15.462 62.9903 16.194C62.9903 16.938 63.1403 17.58 63.4403 18.12C63.7523 18.648 64.2383 18.912 64.8983 18.912Z" fill="white"/>
<path d="M74.8201 21.054C73.8721 21.054 73.1701 20.91 72.7141 20.622C72.2701 20.334 71.9941 19.986 71.8861 19.578C71.7781 19.17 71.7241 18.648 71.7241 18.012L71.7421 7.5H74.5321V17.436C74.5321 17.856 74.5501 18.174 74.5861 18.39C74.6341 18.594 74.7541 18.756 74.9461 18.876C75.1501 18.996 75.4681 19.056 75.9001 19.056C76.1281 19.056 76.2841 19.044 76.3681 19.02V20.964C75.8281 21.024 75.3121 21.054 74.8201 21.054Z" fill="white"/>
<path d="M81.7787 13.656V17.472C81.7787 17.892 81.7967 18.204 81.8327 18.408C81.8807 18.6 82.0007 18.756 82.1927 18.876C82.3967 18.996 82.7207 19.056 83.1647 19.056C83.3927 19.056 83.6267 19.032 83.8667 18.984V20.928C83.7467 20.952 83.5067 20.976 83.1467 21C82.7867 21.036 82.4267 21.054 82.0667 21.054C81.1307 21.054 80.4347 20.916 79.9787 20.64C79.5347 20.364 79.2587 20.028 79.1507 19.632C79.0427 19.236 78.9887 18.72 78.9887 18.084V13.656H77.4587V11.478H78.9887V8.4H81.7787V11.478H83.8667V13.656H81.7787Z" fill="white"/>
<path d="M85.6782 7.644H88.4862V12.864H88.6302C88.8342 12.42 89.1642 12.048 89.6202 11.748C90.0882 11.436 90.6522 11.28 91.3122 11.28C92.5602 11.28 93.4242 11.676 93.9042 12.468C94.3842 13.248 94.6242 14.124 94.6242 15.096V21H91.8162V15.582C91.8162 14.958 91.6782 14.466 91.4022 14.106C91.1262 13.746 90.7122 13.566 90.1602 13.566C89.6082 13.566 89.1882 13.752 88.9002 14.124C88.6242 14.496 88.4862 14.982 88.4862 15.582V21H85.6782V7.644Z" fill="white"/>
<path d="M101.17 8.4C102.178 8.4 103.018 8.604 103.69 9.012C104.362 9.42 104.854 9.948 105.166 10.596C105.49 11.244 105.652 11.934 105.652 12.666C105.652 13.398 105.496 14.088 105.184 14.736C104.872 15.372 104.38 15.888 103.708 16.284C103.036 16.68 102.19 16.878 101.17 16.878H98.776V21H96.634V8.4H101.17ZM100.846 15.06C101.602 15.06 102.238 14.88 102.754 14.52C103.27 14.148 103.528 13.53 103.528 12.666C103.528 11.814 103.27 11.214 102.754 10.866C102.25 10.506 101.614 10.326 100.846 10.326H98.776V15.06H100.846Z" fill="white"/>
<path d="M107.375 11.496H109.535V13.008H109.661C109.817 12.588 110.099 12.234 110.507 11.946C110.927 11.646 111.461 11.496 112.109 11.496C112.337 11.496 112.571 11.526 112.811 11.586L112.721 13.62C112.541 13.56 112.385 13.524 112.253 13.512C112.121 13.488 111.953 13.476 111.749 13.476C111.017 13.476 110.465 13.674 110.093 14.07C109.721 14.466 109.535 15.126 109.535 16.05V21H107.375V11.496Z" fill="white"/>
<path d="M118.23 21.144C117.246 21.144 116.412 20.916 115.728 20.46C115.056 20.004 114.552 19.404 114.216 18.66C113.88 17.916 113.712 17.1 113.712 16.212C113.712 15.336 113.88 14.526 114.216 13.782C114.552 13.026 115.056 12.42 115.728 11.964C116.412 11.508 117.246 11.28 118.23 11.28C119.214 11.28 120.042 11.508 120.714 11.964C121.398 12.42 121.902 13.02 122.226 13.764C122.562 14.508 122.73 15.318 122.73 16.194C122.73 17.07 122.562 17.886 122.226 18.642C121.902 19.398 121.398 20.004 120.714 20.46C120.042 20.916 119.214 21.144 118.23 21.144ZM118.23 19.344C118.986 19.344 119.568 19.044 119.976 18.444C120.384 17.844 120.588 17.094 120.588 16.194C120.588 15.294 120.384 14.55 119.976 13.962C119.568 13.362 118.986 13.062 118.23 13.062C117.462 13.062 116.874 13.362 116.466 13.962C116.07 14.55 115.872 15.294 115.872 16.194C115.872 17.094 116.076 17.844 116.484 18.444C116.892 19.044 117.474 19.344 118.23 19.344Z" fill="white"/>
<path d="M130.017 21.144C129.201 21.144 128.547 20.952 128.055 20.568C127.575 20.172 127.221 19.734 126.993 19.254H126.849V24.708H124.671V11.496H126.849V13.08H126.993C127.197 12.624 127.539 12.21 128.019 11.838C128.499 11.454 129.153 11.262 129.981 11.262C131.217 11.262 132.171 11.718 132.843 12.63C133.515 13.53 133.851 14.724 133.851 16.212C133.851 17.676 133.515 18.864 132.843 19.776C132.171 20.688 131.229 21.144 130.017 21.144ZM129.243 19.38C130.047 19.38 130.647 19.074 131.043 18.462C131.439 17.838 131.637 17.088 131.637 16.212C131.637 15.336 131.439 14.598 131.043 13.998C130.647 13.386 130.047 13.08 129.243 13.08C128.463 13.08 127.869 13.386 127.461 13.998C127.065 14.598 126.867 15.336 126.867 16.212C126.867 17.088 127.065 17.838 127.461 18.462C127.869 19.074 128.463 19.38 129.243 19.38Z" fill="white"/>
<path d="M135.851 7.608H138.047V13.044H138.173C138.401 12.552 138.761 12.132 139.253 11.784C139.757 11.436 140.369 11.262 141.089 11.262C142.313 11.262 143.195 11.658 143.735 12.45C144.275 13.242 144.545 14.16 144.545 15.204V21H142.367V15.546C142.367 14.766 142.175 14.166 141.791 13.746C141.419 13.314 140.891 13.098 140.207 13.098C139.559 13.098 139.037 13.326 138.641 13.782C138.245 14.226 138.047 14.814 138.047 15.546V21H135.851V7.608Z" fill="white"/>
<path d="M150.942 21.144C149.958 21.144 149.124 20.91 148.44 20.442C147.768 19.974 147.264 19.368 146.928 18.624C146.604 17.868 146.442 17.064 146.442 16.212C146.442 15.348 146.604 14.544 146.928 13.8C147.264 13.044 147.768 12.432 148.44 11.964C149.124 11.496 149.964 11.262 150.96 11.262C152.28 11.262 153.324 11.688 154.092 12.54C154.872 13.392 155.262 14.622 155.262 16.23V16.824H148.566V16.968C148.566 17.388 148.662 17.784 148.854 18.156C149.058 18.528 149.334 18.828 149.682 19.056C150.042 19.272 150.45 19.38 150.906 19.38C151.422 19.38 151.86 19.26 152.22 19.02C152.58 18.768 152.85 18.432 153.03 18.012H155.172C154.92 18.924 154.434 19.674 153.714 20.262C152.994 20.85 152.07 21.144 150.942 21.144ZM153.156 15.384C153.132 14.52 152.916 13.89 152.508 13.494C152.112 13.086 151.59 12.882 150.942 12.882C150.246 12.882 149.688 13.11 149.268 13.566C148.86 14.01 148.644 14.616 148.62 15.384H153.156Z" fill="white"/>
<path d="M160.413 13.206V17.868C160.413 18.3 160.431 18.618 160.467 18.822C160.515 19.026 160.635 19.188 160.827 19.308C161.019 19.428 161.325 19.488 161.745 19.488C161.961 19.488 162.237 19.458 162.573 19.398V20.928C162.501 20.952 162.297 20.982 161.961 21.018C161.625 21.054 161.295 21.072 160.971 21.072C160.143 21.072 159.531 20.952 159.135 20.712C158.739 20.472 158.487 20.166 158.379 19.794C158.283 19.422 158.235 18.936 158.235 18.336V13.206H156.579V11.496H158.235V8.4H160.413V11.496H162.573V13.206H160.413Z" fill="white"/>
<path d="M15 21C11.6863 21 9 18.3137 9 15C9 11.6863 11.6863 9 15 9C18.3137 9 21 11.6863 21 15C21 18.3137 18.3137 21 15 21Z" fill="white"/>
<path d="M3.37605 17.0496C1.6373 17.3562 0.445476 19.0358 1.11293 20.6704C2.04477 22.9524 3.5314 24.9856 5.45871 26.5744C8.21462 28.8461 11.6906 30.06 15.2616 29.9977C18.8326 29.9354 22.2642 28.6009 24.9392 26.2343C26.8098 24.5793 28.2246 22.4954 29.0763 20.1823C29.6863 18.5254 28.4365 16.8884 26.6881 16.6427C24.9398 16.397 23.37 17.6696 22.5064 19.2096C22.0383 20.0443 21.4306 20.8016 20.7026 21.4457C19.1678 22.8036 17.1989 23.5692 15.1501 23.605C13.1012 23.6407 11.1068 22.9443 9.52562 21.6408C8.77552 21.0225 8.14182 20.2869 7.64483 19.469C6.72804 17.9601 5.1148 16.743 3.37605 17.0496Z" fill="white"/>
<path d="M29.884 16.8745C29.9606 16.2604 30 15.6348 30 15C30 6.71573 23.2843 0 15 0C6.71573 0 0 6.71573 0 15C0 15.8147 0.06495 16.6142 0.18996 17.3937C0.87894 16.4505 1.95426 15.7772 3.11576 15.5724C4.37245 15.3508 5.51458 15.6556 6.48027 16.2253C6.42322 15.8251 6.3937 15.416 6.3937 15C6.3937 10.2469 10.2469 6.3937 15 6.3937C19.7531 6.3937 23.6063 10.2469 23.6063 15C23.6063 15.3134 23.5895 15.6229 23.5569 15.9276C24.5022 15.3243 25.6332 14.9796 26.8971 15.1573C28.0647 15.3214 29.1625 15.9564 29.884 16.8745Z" fill="white"/>
</svg>
